<svg xmlns="http://www.w3.org/2000/svg" viewBox="0 0 100 125" x="0px" y="0px"><path d="m 44.944402,5.5355 c -6.202051,1.46418 -7.818893,10.908612 -5.317954,21.502198 2.23648,9.473364 7.003904,16.612573 12.421358,16.971377 0,0 0,3.826879 0,5.740319 0,1.116284 -0.280474,2.161923 -0.748737,3.071742 -2.22869,-2.024983 -5.973139,-2.968612 -8.735268,-1.1903 -0.933768,0.601179 -1.593465,1.61984 -1.593465,2.764568 0,1.144728 0.675546,2.139458 1.593465,2.764569 2.669722,1.818101 6.228032,0.89264 8.735268,-1.190301 0.468263,0.909819 0.748737,1.955459 0.748737,3.071743 0,1.116284 -0.280474,2.161923 -0.748737,3.071742 -2.22869,-2.024983 -5.973139,-2.968612 -8.735268,-1.1903 -0.933768,0.601178 -1.593465,1.61984 -1.593465,2.764568 0,1.144729 0.675546,2.139458 1.593465,2.764568 2.669722,1.818103 6.228032,0.892641 8.735268,-1.1903 0.468263,0.90982 0.748737,1.955459 0.748737,3.071743 0,1.116284 -0.280474,2.161923 -0.748737,3.071742 -2.22869,-2.024984 -5.973139,-2.949414 -8.735268,-1.171102 -0.933768,0.601179 -1.593465,1.61984 -1.593465,2.764569 0,1.144728 0.675546,2.120259 1.593465,2.745369 2.669722,1.818103 6.228032,0.91184 8.735268,-1.171101 0.468263,0.909818 0.748737,1.936259 0.748737,3.052544 0,1.116284 -0.280474,2.161923 -0.748737,3.071742 -2.22869,-2.024983 -5.973139,-2.949414 -8.735268,-1.171102 -0.933768,0.601179 -1.593465,1.61984 -1.593465,2.764569 0,1.144727 0.675546,2.120259 1.593465,2.745369 2.669722,1.818103 6.228032,0.91184 8.735268,-1.171101 0.468263,0.909818 0.748737,1.955457 0.748737,3.071742 0,4.469619 3.791292,8.063324 8.389697,8.063324 l 0,-1.958236 c -3.584822,0 -6.431461,-2.741727 -6.431461,-6.105088 0,-1.714787 -0.503422,-3.330921 -1.363086,-4.665209 0.85623,-1.333052 1.363086,-2.934968 1.363086,-4.64601 0,-1.714788 -0.503422,-3.311723 -1.363086,-4.646011 0.85623,-1.333052 1.363086,-2.934967 1.363086,-4.64601 0,-1.714787 -0.503422,-3.311723 -1.363086,-4.646011 0.85623,-1.333051 1.363086,-2.934968 1.363086,-4.64601 0,-1.714787 -0.503422,-3.311723 -1.363086,-4.646011 0.85623,-1.333052 1.36866,-2.934977 1.363086,-4.64601 l -0.0192,-5.893906 -2.323005,-9.867973 c -2.363399,0.43182 -4.201892,-3.370825 -5.413947,-8.504887 -1.212054,-5.134061 -1.289474,-9.408391 1.017515,-10.079155 z m 0.979118,47.074454 c 1.634327,0 3.12508,0.682435 4.223646,1.78545 -1.099137,1.106521 -2.586407,1.785451 -4.223646,1.785451 -0.914366,0 -1.718075,-0.266152 -2.246212,-0.633547 -0.528131,-0.367396 -0.748737,-0.768256 -0.748737,-1.151904 0,-0.383648 0.220606,-0.784507 0.748737,-1.151903 0.528137,-0.367397 1.331846,-0.633547 2.246212,-0.633547 z m 0,9.292021 c 1.634327,0 3.12508,0.682435 4.223646,1.78545 -1.099137,1.106521 -2.586407,1.785451 -4.223646,1.785451 -0.914366,0 -1.718075,-0.246953 -2.246212,-0.614349 -0.528131,-0.367396 -0.748737,-0.787454 -0.748737,-1.171102 0,-0.383647 0.220606,-0.784507 0.748737,-1.151903 0.528137,-0.367396 1.331846,-0.633547 2.246212,-0.633547 z m 0,9.292021 c 1.634327,0 3.12508,0.682435 4.223646,1.78545 -1.099137,1.106521 -2.586407,1.785451 -4.223646,1.785451 -0.914366,0 -1.718075,-0.246953 -2.246212,-0.614349 -0.528131,-0.367396 -0.748737,-0.768256 -0.748737,-1.151903 0,-0.383648 0.220606,-0.784508 0.748737,-1.151904 0.528137,-0.367396 1.331846,-0.652745 2.246212,-0.652745 z m 0,9.311219 c 1.634327,0 3.12508,0.663237 4.223646,1.766252 -1.099137,1.106521 -2.586407,1.804649 -4.223646,1.804649 -0.914366,0 -1.718075,-0.266151 -2.246212,-0.633547 -0.528131,-0.367396 -0.748737,-0.768256 -0.748737,-1.151903 0,-0.383649 0.220606,-0.784508 0.748737,-1.151904 0.528137,-0.367396 1.331846,-0.633547 2.246212,-0.633547 z" color="#000"/><path d="m 45.639384,5.36582 2.335746,9.893847 c 1.266099,-0.314289 2.379464,-0.630657 3.122126,-1.263287 0.50446,-0.42972 0.84667,-1.09442 0.640741,-1.96669 L 50.449511,6.57188 C 50.243588,5.69961 49.640236,5.25814 48.996847,5.0994 48.049663,4.86571 46.912363,5.0807 45.639384,5.36582 z" color="#000"/><path d="m 52.358329,33.826194 2.335747,9.893842 c 1.266098,-0.314288 2.37947,-0.630653 3.122125,-1.263284 0.50446,-0.429725 0.84667,-1.094425 0.640741,-1.96669 l -1.28848,-5.457823 c -0.205929,-0.872258 -0.809281,-1.313728 -1.452663,-1.47247 -0.947184,-0.233692 -2.084491,-0.01868 -3.35747,0.266425 z" color="#000"/><text x="0" y="115" fill="#000000" font-size="5px" font-weight="bold" font-family="'Helvetica Neue', Helvetica, Arial-Unicode, Arial, Sans-serif">Created by Magicon</text><text x="0" y="120" fill="#000000" font-size="5px" font-weight="bold" font-family="'Helvetica Neue', Helvetica, Arial-Unicode, Arial, Sans-serif">from the Noun Project</text></svg>