<svg xmlns="http://www.w3.org/2000/svg" xmlns:xlink="http://www.w3.org/1999/xlink" xml:space="preserve" version="1.1" style="shape-rendering:geometricPrecision;text-rendering:geometricPrecision;image-rendering:optimizeQuality;" viewBox="0 0 100000 125000" x="0px" y="0px" fill-rule="evenodd" clip-rule="evenodd"><defs><style type="text/css">
   
    .fil0 {fill:black}
   
  </style></defs><g><path class="fil0" d="M50940 9914c4958,0 7295,5007 11713,5007 883,0 1599,716 1599,1599 0,418 -160,800 -424,1086 611,169 1062,731 1062,1393l0 24671 874 0c0,-772 351,-996 351,-565l0 147c363,-23 726,-137 1089,-236 36,-174 189,-305 373,-305l5105 0c209,0 313,182 379,379 236,704 271,1406 0,2109 -74,193 -170,379 -379,379l-5105 0c-183,0 -337,-131 -372,-304 -364,-99 -727,-213 -1090,-236l0 147c0,230 -351,230 -351,0l0 -566 -874 0 0 23995c796,0 1242,677 1446,1446l2890 10873c204,769 -653,1446 -1446,1446l-2890 0 0 6261c0,796 -651,1446 -1445,1446 -8184,0 -16367,0 -24551,0 -795,0 -1446,-650 -1446,-1446l0 -6261 -2890 0c-792,0 -1650,-677 -1446,-1446l2891 -10873c204,-769 649,-1446 1445,-1446l0 -2156c-673,324 -1353,509 -2025,587 -4308,499 -7970,-2502 -8231,-6885 -134,-2251 309,-5009 1144,-7980 627,-2230 1681,-4695 2784,-7221l-2375 0c-1343,0 -1343,-2029 0,-2029 1491,-1627 1862,-5538 1703,-10537l-1962 0c-955,0 -1737,-781 -1737,-1736l0 -1c0,-956 782,-1738 1737,-1738l1782 0 -9 -131c-747,0 -745,-1134 0,-1134l477 0c86,-183 461,-334 958,-394 181,-1455 722,-2849 2154,-2594l4 0c1297,232 2265,1229 2701,3101 128,548 210,1178 240,1893l655 0 0 -10660c0,-662 452,-1224 1062,-1393 -264,-286 -425,-668 -425,-1086 0,-883 717,-1599 1600,-1599 4308,0 6956,-4948 11255,-5007zm-14185 21741c-54,769 -155,1609 -304,2522 -333,2035 -1074,4229 -1965,6463 268,980 638,1757 1125,2290 1342,1 1341,2029 0,2029l-2958 0 -1 2c-1169,2676 -2316,5298 -2962,7598 -795,2829 -1219,5431 -1095,7517 213,3575 3149,5979 6668,5570 720,-84 1459,-329 2185,-799l0 -33192 -693 0zm-2715 -1996l1347 0c-29,-597 -98,-1120 -204,-1573 -292,-1254 -855,-1905 -1579,-2034 -385,-65 -549,523 -606,1266 325,77 556,196 622,335l476 0c747,0 746,1134 0,1134l-56 872zm1307 1996l-1411 0c-96,2328 -87,4441 82,6228 472,-1367 844,-2691 1047,-3933 137,-833 229,-1597 282,-2295zm10231 -11659c1979,0 3651,1322 4178,3131l923 0 0 -800c0,-271 221,-491 490,-491l0 0c270,0 490,220 490,491l0 800 923 0c528,-1809 2198,-3131 4179,-3131 2403,0 4351,1948 4351,4351 0,2404 -1948,4353 -4351,4353 -2067,0 -3796,-1440 -4242,-3371l-860 0 0 765c0,271 -220,490 -490,490l0 0c-269,0 -490,-219 -490,-490l0 -765 -861 0c-445,1931 -2173,3371 -4240,3371 -2404,0 -4352,-1949 -4352,-4353 0,-2403 1948,-4351 4352,-4351zm5591 24517c4329,0 7838,3509 7838,7837 0,4329 -3509,7839 -7838,7839 -4328,0 -7839,-3510 -7839,-7839 0,-4328 3511,-7837 7839,-7837zm5592 -23490c1836,0 3325,1488 3325,3324 0,1838 -1489,3325 -3325,3325 -1837,0 -3325,-1487 -3325,-3325 0,-1836 1488,-3324 3325,-3324zm-11183 0c1837,0 3325,1488 3325,3324 0,1838 -1488,3325 -3325,3325 -1837,0 -3325,-1487 -3325,-3325 0,-1836 1488,-3324 3325,-3324zm5591 24515c3763,0 6813,3051 6813,6812 0,3763 -3050,6814 -6813,6814 -3763,0 -6814,-3051 -6814,-6814 0,-3761 3051,-6812 6814,-6812z"/></g><text x="0" y="100015" fill="#000000" font-size="5px" font-weight="bold" font-family="'Helvetica Neue', Helvetica, Arial-Unicode, Arial, Sans-serif">Created by Icon Producer</text><text x="0" y="100020" fill="#000000" font-size="5px" font-weight="bold" font-family="'Helvetica Neue', Helvetica, Arial-Unicode, Arial, Sans-serif">from the Noun Project</text></svg>