<svg xmlns="http://www.w3.org/2000/svg" xmlns:xlink="http://www.w3.org/1999/xlink" version="1.1" x="0px" y="0px" viewBox="0 0 182.161 316.53375" style="enable-background:new 0 0 182.161 253.227;" xml:space="preserve"><g><path d="M132.592,89.333h45.806v-80h-45.806v15h-7.751v4h7.751v18.833h-7.751v4h7.751V89.333z M171.37,76.083h-31.75v-2.75h31.75   V76.083z M171.37,69.458h-31.75v-2.75h31.75V69.458z M171.37,62.833h-31.75v-2.75h31.75V62.833z M155.495,16.719   c9.941,0,18,8.059,18,18s-8.059,18-18,18c-9.941,0-18-8.059-18-18S145.554,16.719,155.495,16.719z"/><path d="M128.828,92.333v40h53.333v-40H128.828z M155.494,105.334c-2.393,0-4.333-1.94-4.333-4.334c0-2.394,1.94-4.334,4.333-4.334   c2.394,0,4.334,1.94,4.334,4.334C159.828,103.394,157.888,105.334,155.494,105.334z"/><rect x="137.828" width="35.333" height="6.333"/><path d="M8.575,162.679c0.159,0,0.317-0.004,0.477-0.014c4.412-0.258,7.776-4.044,7.519-8.455c-0.392-6.65-0.57-12.707-0.57-18.22   c-0.034-24.218,3.497-37.822,6.966-44.92v32.854v18.939v98c0,6.83,5.537,12.363,12.363,12.363c6.828,0,12.365-5.533,12.365-12.363   v-90.271h4.635v90.271c0,6.83,5.537,12.363,12.363,12.363c6.828,0,12.365-5.533,12.365-12.363v-98v-18.939v-2.157   c-8.017-12.115-13.333-30.657-13.354-43.745c0.005-3.846,0.461-7.222,1.515-9.881c0.653,0.148,1.337,0.262,2.03,0.33   c-1.022,2.321-1.55,5.642-1.544,9.551c-0.019,11.647,4.525,28.319,11.353,39.98v-32.37c4.712,1.277,10.38,2.611,16.016,2.648   c2.863-0.045,5.855-0.255,9.199-2.031c1.645-0.897,3.36-2.349,4.54-4.322c1.197-1.962,1.728-4.279,1.712-6.347   c-0.158-5.366-2.43-9.435-5.96-14.598c-3.619-5.109-8.936-11.132-16.61-18.688c-0.595-0.584-1.257-1.056-1.962-1.417   c0.946-5.304,1.636-11.542,0.766-14.165c-1.412-4.264-9.726-6.328-10.742-5.465c-1.018,0.863-2.021,11.535,0.35,12.604   c1.971,0.891,5.031-0.146,5.045,0.984c0.013,0.752-0.233,2.919-0.612,5.316c-1.527,0.299-2.984,1.045-4.158,2.237   c-3.087,3.141-3.053,8.185,0.069,11.284c-0.827,1.837-1.589,3.368-1.947,3.91c-0.623,0.941-2.643-1.578-4.783-1.891   c-2.572-0.377-7.477,9.154-7.084,10.432c0.056,0.183,0.284,0.396,0.62,0.617h-30.82c-0.851,0-1.666,0.143-2.432,0.396   c-1.697,0.243-3.825,0.792-6.147,1.964c-5.381,2.668-11.179,8.503-15.237,18.841C2.772,98.324,0.015,113.33,0,135.99   c0.002,5.857,0.189,12.225,0.598,19.159C0.849,159.398,4.373,162.679,8.575,162.679z M72.892,67.309   c1.759-1.429,3.942-5.47,5.808-9.621c5.073,5.228,8.599,9.407,10.802,12.531c0.496,0.7,0.925,1.346,1.289,1.932   c-2.922-0.313-6.733-1.149-9.871-2.048c-2.048-0.573-3.865-1.152-5.149-1.583c-0.644-0.214-1.152-0.392-1.493-0.512   c-0.341-0.123-0.479-0.174-0.479-0.174c-0.364-0.135-0.732-0.232-1.101-0.312c-0.024-0.012-0.049-0.024-0.073-0.035   C72.711,67.425,72.809,67.376,72.892,67.309z"/><circle cx="50.013" cy="38.543" r="22.5"/><path d="M78.377,121.987c-0.447,0.322-0.547,0.947-0.227,1.394c0.001,0.001,0.001,0.001,0.001,0.002   c4.443,6.162,9.706,10.433,15.597,10.459c7.161-0.047,14.235-6.329,20.848-21.442c1.493-3.419,4.041-10.411,7.035-17.248   c2.964-6.819,6.476-13.506,9.437-15.973c0.422-0.357,0.475-0.987,0.119-1.409c-0.357-0.421-0.987-0.475-1.409-0.118   c-3.538,3.035-6.93,9.779-9.979,16.697c-3.019,6.899-5.594,13.949-7.037,17.25c-6.519,14.925-13.23,20.289-19.014,20.242   c-4.821,0.028-9.697-3.67-13.97-9.623c-0.001-0.001-0.002-0.002-0.003-0.003C79.453,121.766,78.827,121.665,78.377,121.987z"/><circle cx="155.496" cy="21.427" r="2.417"/><circle cx="155.496" cy="48.01" r="2.417"/><ellipse transform="matrix(0.4999 -0.8661 0.8661 0.4999 60.9844 152.032)" cx="162.141" cy="23.208" rx="2.416" ry="2.416"/><ellipse transform="matrix(0.5002 -0.8659 0.8659 0.5002 34.3602 151.9911)" cx="148.849" cy="46.229" rx="2.417" ry="2.416"/><ellipse transform="matrix(0.8661 -0.4999 0.4999 0.8661 8.3329 87.2507)" cx="167.007" cy="28.073" rx="2.416" ry="2.416"/><ellipse transform="matrix(0.8661 -0.4999 0.4999 0.8661 -1.395 77.5215)" cx="143.985" cy="41.364" rx="2.417" ry="2.416"/><circle cx="168.787" cy="34.719" r="2.417"/><circle cx="142.204" cy="34.718" r="2.417"/><ellipse transform="matrix(0.5001 -0.866 0.866 0.5001 47.6615 165.2958)" cx="167.006" cy="41.365" rx="2.417" ry="2.417"/><ellipse transform="matrix(0.5002 -0.8659 0.8659 0.5002 47.652 138.7052)" cx="143.984" cy="28.073" rx="2.417" ry="2.417"/><ellipse transform="matrix(0.8659 -0.5001 0.5001 0.8659 -1.3855 87.291)" cx="162.141" cy="46.23" rx="2.417" ry="2.417"/><ellipse transform="matrix(0.8661 -0.4998 0.4998 0.8661 8.3278 77.5064)" cx="148.849" cy="23.207" rx="2.416" ry="2.417"/><circle cx="155.495" cy="34.719" r="6.167"/></g><text x="0" y="268.227" fill="#000000" font-size="5px" font-weight="bold" font-family="'Helvetica Neue', Helvetica, Arial-Unicode, Arial, Sans-serif">Created by Gan Khoon Lay</text><text x="0" y="273.227" fill="#000000" font-size="5px" font-weight="bold" font-family="'Helvetica Neue', Helvetica, Arial-Unicode, Arial, Sans-serif">from the Noun Project</text></svg>